<?xml version="1.0" encoding="UTF-8" standalone="no"?>
<svg
   height="48px"
   viewBox="0 -960 960 960"
   width="48px"
   fill="#e3e3e3"
   version="1.1"
   id="svg1"
   sodipodi:docname="up-arrow2.svg"
   inkscape:version="1.4.2 (f4327f4, 2025-05-13)"
   xmlns:inkscape="http://www.inkscape.org/namespaces/inkscape"
   xmlns:sodipodi="http://sodipodi.sourceforge.net/DTD/sodipodi-0.dtd"
   xmlns="http://www.w3.org/2000/svg"
   xmlns:svg="http://www.w3.org/2000/svg">
  <defs
     id="defs1" />
  <sodipodi:namedview
     id="namedview1"
     pagecolor="#ffffff"
     bordercolor="#000000"
     borderopacity="0.25"
     inkscape:showpageshadow="2"
     inkscape:pageopacity="0.0"
     inkscape:pagecheckerboard="0"
     inkscape:deskcolor="#d1d1d1"
     inkscape:zoom="16.8125"
     inkscape:cx="23.97026"
     inkscape:cy="24"
     inkscape:window-width="1920"
     inkscape:window-height="1009"
     inkscape:window-x="1352"
     inkscape:window-y="-8"
     inkscape:window-maximized="1"
     inkscape:current-layer="svg1" />
  <path
     d="m 480,-651 -177,177 q -9,9 -21,9 -12,0 -21,-9 -9,-9 -9,-21 0,-12 9,-21 l 198,-198 q 5,-5 10,-7 5,-2 11,-2 6,0 11,2 5,2 10,7 l 198,198 q 9,9 9,21 0,12 -9,21 -9,9 -21,9 -12,0 -21,-9 z m 0,253 -177,177 q -9,9 -21,9 -12,0 -21,-9 -9,-9 -9,-21 0,-12 9,-21 l 198,-198 q 5,-5 10,-7 5,-2 11,-2 6,0 11,2 5,2 10,7 l 198,198 q 9,9 9,21 0,12 -9,21 -9,9 -21,9 -12,0 -21,-9 z"
     id="path1" />
</svg>
