<?xml version="1.0" encoding="UTF-8" standalone="no"?>
<svg
   height="48px"
   viewBox="0 -960 960 960"
   width="48px"
   fill="#e3e3e3"
   version="1.1"
   id="svg1"
   sodipodi:docname="watchlist.svg"
   inkscape:version="1.4.2 (f4327f4, 2025-05-13)"
   xmlns:inkscape="http://www.inkscape.org/namespaces/inkscape"
   xmlns:sodipodi="http://sodipodi.sourceforge.net/DTD/sodipodi-0.dtd"
   xmlns="http://www.w3.org/2000/svg"
   xmlns:svg="http://www.w3.org/2000/svg">
  <defs
     id="defs1">
    <clipPath
       clipPathUnits="userSpaceOnUse"
       id="clipPath4">
      <path
         id="path4"
         style="fill:#ff0000;fill-opacity:1;fill-rule:nonzero;stroke:none;stroke-width:20"
         d="m 40,-920 v 880 h 880 v -880 z m 100.82031,22.1875 c 9.17095,-0.0536 18.31225,0.7361 27.1875,2.69531 1.6874,0.3725 3.34088,0.96224 5,1.44532 11.30679,3.29224 6.85419,14.02466 -4.53125,11.01562 -17.36912,-4.59045 -36.02838,-3.76991 -53.63281,-0.97656 -5.91789,0.93901 -11.74834,2.42458 -17.617188,3.63281 -11.091284,3.80286 -19.58813,5.56693 -28.90625,12.89062 -5.18414,4.07454 -9.848796,9.8706 -9.335936,16.95313 0.495204,6.83873 6.070014,10.79161 10.273436,15.23437 3.842968,2.3606 7.456376,5.12101 11.523438,7.07032 14.682938,7.03738 36.49887,11.99915 52.1875,5.35156 2.36764,-1.00322 4.30499,-2.8326 6.44531,-4.25781 1.1109,-1.61207 2.51151,-3.06086 3.32032,-4.84375 3.02179,-6.66102 -0.79199,-12.89594 -4.17969,-18.35938 -6.20592,-10.00845 4.4036,-16.28624 10.23437,-6.05468 2.98786,5.24293 5.22142,8.12388 6.21094,14.33593 0.97998,6.15212 0.26546,11.94993 -2.92969,17.42188 -1.6783,2.87423 -4.29401,5.07752 -6.44531,7.61719 -3.25719,1.89487 -6.24858,4.35025 -9.76562,5.70312 -18.74322,7.2098 -44.211158,2.02139 -61.48438,-6.875 -5.038062,-2.5948 -9.455662,-6.28379 -14.179688,-9.41406 -7.496844,-9.48591 -13.37604,-13.15672 -12.617188,-26.32813 0.265276,-4.60437 2.056656,-9.16948 4.492188,-13.08593 9.15702,-14.72499 27.440902,-20.21047 42.773438,-25.03907 6.23598,-1.26549 12.42357,-2.81038 18.71094,-3.78906 8.92159,-1.38872 18.09468,-2.29016 27.26562,-2.34375 z" />
    </clipPath>
  </defs>
  <sodipodi:namedview
     id="namedview1"
     pagecolor="#ffffff"
     bordercolor="#000000"
     borderopacity="0.25"
     inkscape:showpageshadow="2"
     inkscape:pageopacity="0.0"
     inkscape:pagecheckerboard="0"
     inkscape:deskcolor="#d1d1d1"
     inkscape:zoom="11.888233"
     inkscape:cx="22.963884"
     inkscape:cy="24.267694"
     inkscape:window-width="1920"
     inkscape:window-height="1009"
     inkscape:window-x="1352"
     inkscape:window-y="-8"
     inkscape:window-maximized="1"
     inkscape:current-layer="svg1" />
  <path
     id="path1"
     clip-path="url(#clipPath4)"
     d="m 95.117188,-767.34375 c 0.02751,0.56709 0.05204,1.11229 0.07812,1.67969 0.05901,-0.43636 0.02782,-0.99958 -0.07812,-1.67969 z m 383.867192,31.32813 c -72.66667,0 -138.98438,19.16659 -198.98438,57.5 -60,38.3333 -107.67448,91.53124 -143.00781,159.53124 -3,6 -5.25781,12.25 -6.75781,18.75 -1.5,6.50003 -2.22657,13.23438 -2.22657,20.23438 0,6.84 0.65886,13.53719 1.99219,20.11719 1.33333,6.58 3.65885,12.86718 6.99219,18.86719 C 172.32556,-373.68232 220,-320.83333 280,-282.5 c 60,38.33333 126.31771,57.5 198.98438,57.5 72.66665,0 139.19794,-19.16667 199.53124,-57.5 60.3334,-38.33333 108.14323,-91.18229 143.47657,-158.51562 3.33333,-6 5.65884,-12.31771 6.99219,-18.98438 1.33333,-6.66667 2.03124,-13.33333 2.03124,-20 10e-6,-6.66667 -0.69794,-13.33333 -2.03124,-20 -1.33335,-6.66667 -3.65886,-12.98438 -6.99219,-18.98438 -35.33334,-67.99999 -83.14323,-121.19794 -143.47657,-159.53124 -60.3333,-38.33342 -126.86461,-57.50002 -199.53124,-57.5 z m 0,60 c 62,0 119.67447,17.67447 173.00781,53.00781 C 705.32556,-587.67446 745.98437,-540 773.98438,-480 c -28,60 -68.65886,107.5 -121.99219,142.5 -53.33334,35 -111.00786,52.5 -173.00781,52.5 -62.00007,0 -119.5,-17.5 -172.5,-52.5 C 253.48438,-372.5 213,-420 185,-480 c 28,-60 68.48438,-107.67448 121.48438,-143.00781 53,-35.33334 110.49997,-53.00789 172.5,-53.00781 z m 1.09374,63.00781 c -36.71332,0 -67.92711,12.99198 -93.59374,38.94531 -25.66668,25.95333 -38.47657,57.27103 -38.47657,93.98438 0,36.7133 12.89761,67.92709 38.71094,93.59374 25.81333,25.6667 56.99563,38.47657 93.51563,38.47657 36.51999,0 67.75,-12.89761 93.75,-38.71094 26,-25.81333 39.02343,-56.99563 39.02343,-93.51563 0,-36.51999 -12.99198,-67.75 -38.94531,-93.75 -25.95333,-26 -57.27098,-39.02343 -93.98438,-39.02343 z m -0.0781,60 c 20,0 37.15099,7.09573 51.48438,21.28906 14.33333,14.19333 21.52343,31.43875 21.52343,51.71875 0,20 -7.09573,37.01562 -21.28906,51.01562 -14.19333,14 -31.43875,20.97657 -51.71875,20.97657 -20,0 -37.01562,-6.97651 -51.01562,-20.97657 -14,-14 -20.97657,-31.01562 -20.97657,-51.01562 0,-20 6.97649,-37.15103 20.97657,-51.48438 14,-14.33333 31.01562,-21.52343 51.01562,-21.52343 z"
     transform="matrix(1.1966044,0,0,1.1117734,-95.977672,71.630692)"
     style="stroke-width:1.00216;stroke-dasharray:none" />
</svg>
